<svg xmlns="http://www.w3.org/2000/svg" width="32" height="32" viewBox="0 0 64 64" id="back"><path d="M41 5H23A18.021 18.021 0 0 0 5 23v18a18.021 18.021 0 0 0 18 18h18a18.021 18.021 0 0 0 18-18V23A18.021 18.021 0 0 0 41 5Zm14 36a14.015 14.015 0 0 1-14 14H29a16 16 0 0 1-16-16c0-4.436.343-8.428-4-11.738V23A14.015 14.015 0 0 1 23 9h18a14.015 14.015 0 0 1 14 14Zm-9.26-9a2 2 0 0 1-2 2H24.549l6.651 7.929a2 2 0 1 1-3.062 2.571l-9.411-11.214c-.006-.007-.009-.016-.015-.023-.023-.028-.042-.058-.063-.087-.035-.047-.066-.1-.1-.146-.02-.034-.044-.065-.063-.1s-.025-.058-.039-.088a1.462 1.462 0 0 1-.064-.159c-.014-.039-.033-.076-.044-.116s-.013-.06-.02-.091a1.5 1.5 0 0 1-.032-.165c-.007-.04-.017-.08-.021-.121s0-.072 0-.108-.009-.054-.009-.082.007-.054.009-.082 0-.072 0-.108.014-.081.021-.121a1.5 1.5 0 0 1 .032-.165c.007-.031.011-.061.02-.091s.03-.077.044-.116.04-.108.064-.159c.014-.03.024-.059.039-.088s.043-.066.063-.1c.03-.05.061-.1.1-.146.021-.029.04-.059.063-.087.006-.007.009-.016.015-.023L28.138 19.5a2 2 0 0 1 3.062 2.571L24.549 30H43.74a2 2 0 0 1 2 2Z" data-name="Arrow"></path></svg>