<svg xmlns="http://www.w3.org/2000/svg" width="128" height="128" viewBox="0 0 1010 1001.437" id="bookmark"><path fill="#545454" d="M984.759 22.955H25.24C11.298 22.955 0 34.253 0 48.195v953.242h1010V48.196c0-13.943-11.32-25.241-25.241-25.241zM278.526 74.289c15.243 0 27.617 12.284 27.617 27.617 0 15.198-12.374 27.527-27.617 27.527-15.288 0-27.64-12.328-27.64-27.527 0-15.333 12.352-27.617 27.64-27.617zm-89.106-.045c15.22 0 27.617 12.329 27.617 27.662 0 15.198-12.396 27.572-27.617 27.572-15.266 0-27.617-12.374-27.617-27.572 0-15.333 12.351-27.662 27.617-27.662zm-89.15 0c15.288 0 27.639 12.329 27.639 27.662 0 15.198-12.351 27.527-27.64 27.527-15.22 0-27.594-12.328-27.594-27.527 0-15.333 12.374-27.662 27.594-27.662zM931.092 922.53H78.906V180.767h852.187v741.764z"></path><path fill="#d86d3c" d="M843.938 688.636 678.952 540.911 514.101 688.636V0h329.837v688.636zM645.035 291.505l-75.902 10.984 54.897 53.575-12.978 75.589 67.9-35.777 67.967 35.777-13.025-75.589 54.966-53.575-75.925-10.984-33.984-68.796-33.916 68.796z"></path></svg>