<svg xmlns="http://www.w3.org/2000/svg" width="30" height="30" viewBox="0 0 64 64" id="BookResearch"><g data-name="Layer 26" fill="#ffff" class="color000000 svgShape"><path d="M62,9.26V52.3A2.7015,2.7015,0,0,1,59.3,55H37.28v-.34a5.2276,5.2276,0,0,0-1.75-3.91,11.1284,11.1284,0,0,0,5.59-4.16c1.51.41,3.01.82,3.55.88,3.59.42,7.31.84,10.25.04V4.7a30.76,30.76,0,0,1-11.98-.09A28.5442,28.5442,0,0,0,33,4.33V27.95a1,1,0,1,1-2,0V4.33a28.5442,28.5442,0,0,0-9.94.28c-.17.03-.35.06-.52.08V17.68a.9993.9993,0,0,1-.4.8,1.0286,1.0286,0,0,1-.6.2.9034.9034,0,0,1-.28-.04l-2.61-.75-2.6.75a.9853.9853,0,0,1-.88-.16.9993.9993,0,0,1-.4-.8V5.18A32.5769,32.5769,0,0,1,9.08,4.7V47.51c2.96.81,6.69.38,10.3-.03.51-.06,2.04-.38,3.62-.71a11.2091,11.2091,0,0,0,5.47,3.98,5.2276,5.2276,0,0,0-1.75,3.91V55H4.7A2.7015,2.7015,0,0,1,2,52.3V9.26A2.71,2.71,0,0,1,4.7,6.55H7.08V3.47a1.0222,1.0222,0,0,1,.37-.78.9838.9838,0,0,1,.84-.19,28.7564,28.7564,0,0,0,12.45.13A30.1347,30.1347,0,0,1,32,2.46a30.1347,30.1347,0,0,1,11.26.17A28.7564,28.7564,0,0,0,55.71,2.5a.9838.9838,0,0,1,.84.19,1.0222,1.0222,0,0,1,.37.78V6.55H59.3A2.71,2.71,0,0,1,62,9.26Z" fill="#ffff" class="color000000 svgShape"></path><path d="M33 51.5554V49.262a9.1592 9.1592 0 10-2 0v2.2934a3.27 3.27 0 00-2.2764 3.1038v4.0644a3.2764 3.2764 0 006.5528 0V54.6592A3.27 3.27 0 0033 51.5554zM24.8408 40.1592A7.1592 7.1592 0 1132 47.3193 7.1677 7.1677 0 0124.8408 40.1592zm8.4356 18.5644a1.2764 1.2764 0 01-2.5528 0V54.6592a1.2764 1.2764 0 012.5528 0zM50.7578 8.9893a1 1 0 00-.9717-.0459 8.2467 8.2467 0 01-4.5673.67A14.517 14.517 0 0142.875 9.04a11.737 11.737 0 00-4.752-.705 1 1 0 00-.8916.9941V15.75a1 1 0 001.1084.9941 9.8518 9.8518 0 013.9551.6309 16.0441 16.0441 0 002.6778.6436 11.3457 11.3457 0 001.4013.0869 9.7211 9.7211 0 004.3028-.9493 1 1 0 00.5546-.8955V9.8389A.9978.9978 0 0050.7578 8.9893zM49.7861 21.7871a8.2527 8.2527 0 01-4.5673.669 14.517 14.517 0 01-2.3438-.5733 11.7387 11.7387 0 00-4.752-.7051A1 1 0 0038.34 23.166a9.8562 9.8562 0 013.9571.6309 16.1314 16.1314 0 002.6758.6435 11.3262 11.3262 0 001.4013.0869 9.7224 9.7224 0 004.3028-.9492 1 1 0 10-.8907-1.791zM38.34 27.5869a9.8675 9.8675 0 013.9551.6309 16.0341 16.0341 0 002.6778.6435 11.3262 11.3262 0 001.4013.0869 9.7224 9.7224 0 004.3028-.9492 1 1 0 10-.8907-1.791 8.257 8.257 0 01-4.5673.669 14.5155 14.5155 0 01-2.3458-.5733 11.7141 11.7141 0 00-4.75-.7051 1 1 0 00.2168 1.9883zM25.877 21.1777a11.7242 11.7242 0 00-4.752.7051 14.517 14.517 0 01-2.3438.5733 8.2527 8.2527 0 01-4.5673-.669 1 1 0 10-.8907 1.791 9.7224 9.7224 0 004.3028.9492 11.3262 11.3262 0 001.4013-.0869 16.1314 16.1314 0 002.6758-.6435A9.8589 9.8589 0 0125.66 23.166a1 1 0 00.2168-1.9883zM21.127 26.3037a14.5155 14.5155 0 01-2.3458.5733 8.2438 8.2438 0 01-4.5673-.669 1 1 0 10-.8907 1.791 9.7088 9.7088 0 004.3028.9492 11.3262 11.3262 0 001.4013-.0869 16.0341 16.0341 0 002.6778-.6435 9.865 9.865 0 013.9551-.6309 1 1 0 00.2168-1.9883A11.7 11.7 0 0021.127 26.3037z" fill="#ffff" class="color000000 svgShape"></path><path d="M37,40.6494a1,1,0,0,0-2,0,2.513,2.513,0,0,1-2.5107,2.51,1,1,0,0,0,0,2A4.5156,4.5156,0,0,0,37,40.6494Z" fill="#ffff" class="color000000 svgShape"></path></g></svg>