<svg xmlns="http://www.w3.org/2000/svg" width="24" height="24" enable-background="new 0 0 90 90" viewBox="0 0 90 90" id="clap"><path d="M82.277 60.621L60.871 73.078l1.244 2.174c1.568 2.734 2.854 3.172 3.803 3.25 1.297.088 2.988-.5 5.613-2.033l8.334-4.848c2.625-1.531 3.984-2.691 4.547-3.891.412-.863.678-2.203-.891-4.941L82.277 60.621zM14.637 37.048c-.834.932-1.193 2.281-.934 3.516.246 1.162 1.016 2.047 1.516 2.182l17.1 4.62c.584.156.932.762.771 1.355-.125.49-.574.816-1.059.816-.094 0-.188-.01-.281-.041L9.453 43.474c-.504-.135-1.613.246-2.395 1.131-.834.932-1.193 2.282-.938 3.522.244 1.156 1.238 2.088 1.738 2.225l1.984.557c.006 0 .016 0 .027.004.004 0 .004 0 .004 0l19.49 5.262c.584.162.932.766.775 1.354-.129.494-.572.824-1.057.824-.094 0-.193-.012-.287-.043L9.293 53.043c-.99-.26-2.1.121-2.887 1-.832.932-1.191 2.281-.932 3.516.244 1.156 1.516 2.184 2.016 2.318l20.068 5.416c.582.156.932.762.775 1.355-.131.494-.572.816-1.057.816-.094 0-.193-.004-.287-.035L14.215 63.98c-.371.156-.725.391-1.027.73-.707.811-1.016 1.977-.801 3.041.191.975.816 1.717 1.223 1.834l31.137 8.41c3.816 1.031 5.322.834 8.869-.629 1.813-.781 3.688-1.578 6.725-.813-.043-.068-.084-.125-.125-.199l-1.918-3.348c-1.229-2.096-2.578-2.641-4.285-3.334-2.256-.912-5.059-2.053-7.949-7.084L33.287 40.267c-.053-.006-.109.01-.162-.006l-15.588-4.213c-.25-.068-.51-.094-1.021-.074-.516.027-1.285.408-1.879 1.068V37.048z"></path><path d="M44.891,11.277c-1.244,0.063-2.438,0.76-3.119,1.817c-0.646,0.995-0.725,2.172-0.463,2.625L55.24,40.048
	c0.303,0.527,0.119,1.203-0.4,1.51c-0.178,0.1-0.365,0.146-0.547,0.146c-0.381,0-0.75-0.197-0.953-0.553L40.559,18.839
	c-0.516-0.901-1.553-1.432-2.74-1.354c-1.256,0.068-2.447,0.76-3.125,1.813c-0.646,1-0.725,2.176-0.463,2.624L47.563,45.21
	c0.303,0.531,0.121,1.202-0.4,1.51c-0.178,0.104-0.365,0.145-0.547,0.145c-0.381,0-0.75-0.197-0.953-0.551l-9.484-16.313
	c-0.188-0.078-0.6-0.162-1.365-0.115c-0.76,0.046-1.797,0.646-2.395,1.552c-0.547,0.834-0.625,1.803-0.209,2.531l15.75,27.511
	c2.51,4.375,4.725,5.271,6.869,6.141c1.668,0.678,3.387,1.391,4.902,3.566l21.697-12.629c-0.213-1.865,0.479-5.063,1.553-9.734
	l0.176-0.754c1.037-4.763,0.125-7.782-0.926-11.276c-0.734-2.434-1.496-4.949-1.709-8.298c0-0.745,0.021-1.369,0.041-1.938
	c0.027-0.958,0.068-2.156-0.104-2.426c-1.744,0.052-3.084,0.531-4.006,1.489c-1.141,1.167-1.691,3.089-1.641,5.693l0.762,7.291
	c0.109,1.053-1.438,1.73-2.043,0.672L58.309,12.684c-0.521-0.902-1.594-1.423-2.746-1.35c-1.25,0.063-2.447,0.76-3.129,1.812
	c-0.641,0.99-0.719,2.162-0.215,3.058l11.297,19.719c0.303,0.531,0.121,1.209-0.4,1.51c-0.178,0.104-0.365,0.15-0.547,0.15
	c-0.381,0-0.75-0.197-0.953-0.551L47.381,12.184C47.125,11.735,46.084,11.214,44.891,11.277z"></path></svg>