<svg xmlns="http://www.w3.org/2000/svg" width="64" height="64" viewBox="0 0 64 64" id="error-message"><path fill="#cecece" d="M3.73 14.7v33.2h56.54V14.7H3.73z"></path><path fill="#48495a" d="M60.27 12.7v2H3.73v-2c0-1.77 1.44-3.2 3.21-3.2h50.12c1.77 0 3.21 1.43 3.21 3.2zM64 47.9v.31c0 3.47-2.81 6.29-6.29 6.29H6.29C2.81 54.5 0 51.69 0 48.21v-.31h64z"></path><path fill="#edc92c" d="M32 42.92H18.23c-.53 0-.85-.58-.57-1.03l6.85-10.9L31.55 20a.71.71 0 0 1 1.2.01l6.75 10.97 6.85 10.9a.672.672 0 0 1-.57 1.03H32z"></path><path d="m30.67 26.88.38 7.24c.03.48.43.86.91.86.48 0 .88-.37.91-.85l.46-7.25c0-2.12-2.69-1.86-2.66 0zm2.56 10.74a1.23 1.23 0 1 1-2.46 0 1.23 1.23 0 1 1 2.46 0z"></path></svg>