<svg xmlns="http://www.w3.org/2000/svg" width="32" height="32" viewBox="0 0 360 510" id="home-page"><g data-name="Layer 2"><g data-name="home page"><path d="M315,0H45A45.05,45.05,0,0,0,0,45V465a45.05,45.05,0,0,0,45,45H315a45.05,45.05,0,0,0,45-45V45A45.05,45.05,0,0,0,315,0Zm15,465a15,15,0,0,1-15,15H45a15,15,0,0,1-15-15V45A15,15,0,0,1,45,30H315a15,15,0,0,1,15,15Z"></path><path d="M283.65 342.46l16.7-24.92L180 237 59.65 317.54l16.7 24.92L90 333.32V420H60v30H300V420H270V333.32zM240 420H195V360H165v60H120V313.23l60-40.18 60 40.18zM300 60H60v90H300zm-30 60H90V90H270z"></path><rect width="240" height="30" x="60" y="180"></rect></g></g></svg>