<svg xmlns="http://www.w3.org/2000/svg" width="24" height="24" fill="none" viewBox="0 0 24 24" id="new-post"><path fill="#d36330" fill-rule="evenodd" d="M4 4.75C3.30964 4.75 2.75 5.30964 2.75 6V20C2.75 20.6904 3.30964 21.25 4 21.25H18C18.6904 21.25 19.25 20.6904 19.25 20V10.5C19.25 10.0858 19.5858 9.75 20 9.75C20.4142 9.75 20.75 10.0858 20.75 10.5V20C20.75 21.5188 19.5188 22.75 18 22.75H4C2.48122 22.75 1.25 21.5188 1.25 20V6C1.25 4.48122 2.48122 3.25 4 3.25H13.5C13.9142 3.25 14.25 3.58579 14.25 4C14.25 4.41421 13.9142 4.75 13.5 4.75H4Z" clip-rule="evenodd"></path><path fill="#d36330" fill-rule="evenodd" d="M15.25 5C15.25 4.58579 15.5858 4.25 16 4.25H22C22.4142 4.25 22.75 4.58579 22.75 5C22.75 5.41421 22.4142 5.75 22 5.75H16C15.5858 5.75 15.25 5.41421 15.25 5Z" clip-rule="evenodd"></path><path fill="#d36330" fill-rule="evenodd" d="M19 8.75C18.5858 8.75 18.25 8.41421 18.25 8V2C18.25 1.58579 18.5858 1.25 19 1.25C19.4142 1.25 19.75 1.58579 19.75 2V8C19.75 8.41421 19.4142 8.75 19 8.75Z" clip-rule="evenodd"></path></svg>