<svg xmlns="http://www.w3.org/2000/svg" width="30" height="30"  id="Refresh" x="0" y="0" version="1.1" viewBox="0 0 29 29" xml:space="preserve"><path fill="none" stroke="#f8f5ed" stroke-miterlimit="10" stroke-width="2" d="M20.321 21.571A10.003 10.003 0 0 1 13.25 24.5c-5.486 0-10-4.514-10-10s4.514-10 10-10 10 4.514 10 10" class="colorStroke000000 svgStroke"></path><path d="M21.161 12.335h4.177a.41.41 0 0 1 .353.621l-2.089 3.509a.41.41 0 0 1-.706 0l-2.089-3.509a.412.412 0 0 1 .354-.621z" fill="#d36330" class="color000000 svgShape"></path><path fill="none" stroke="#f8f5ed" stroke-miterlimit="10" stroke-width="2" d="M20.321 21.571A10.003 10.003 0 0 1 13.25 24.5c-5.486 0-10-4.514-10-10s4.514-10 10-10 10 4.514 10 10" class="colorStroke000000 svgStroke"></path><path d="M21.161 12.335h4.177a.41.41 0 0 1 .353.621l-2.089 3.509a.41.41 0 0 1-.706 0l-2.089-3.509a.412.412 0 0 1 .354-.621z" fill="#d36330" class="color000000 svgShape"></path></svg>