<svg xmlns="http://www.w3.org/2000/svg" width="48" height="48" enable-background="new 0 0 48 48" viewBox="0 0 48 48" id="sad"><path d="M24,48h-9c-0.552,0-1-0.447-1-1v-4c0-0.553,0.448-1,1-1h9c0.552,0,1,0.447,1,1v4C25,47.553,24.552,48,24,48z M16,46h7v-2
		h-7V46z"></path><path d="M24,44h-9c-0.351,0-0.677-0.185-0.857-0.485l-5.145-8.575C8.345,33.852,8,32.606,8,31.338V14c0-1.654,1.346-3,3-3
		s3,1.346,3,3v13.734l0.194,0.34c0.007-0.01,0.015-0.02,0.022-0.029c0.661-0.881,1.675-1.369,2.772-1.358
		c1.101,0.019,2.095,0.546,2.726,1.448l5.104,7.292C24.937,35.595,25,35.795,25,36v7C25,43.553,24.552,44,24,44z M15.566,42H23
		v-5.685l-4.924-7.034c-0.259-0.37-0.667-0.587-1.12-0.595c-0.445,0.006-0.868,0.196-1.14,0.559
		c-0.295,0.394-0.356,0.91-0.178,1.356l0.214,0.374l2.98,4.47c0.306,0.46,0.182,1.08-0.277,1.387
		c-0.46,0.306-1.081,0.182-1.387-0.277l-3.06-4.59c-0.1-0.149-0.186-0.305-0.259-0.464l-1.717-3.005C12.045,28.345,12,28.174,12,28
		V14c0-0.552-0.449-1-1-1s-1,0.448-1,1v17.338c0,0.906,0.247,1.796,0.712,2.572L15.566,42z"></path><path d="M33,48h-9c-0.552,0-1-0.447-1-1v-4c0-0.553,0.448-1,1-1h9c0.552,0,1,0.447,1,1v4C34,47.553,33.552,48,33,48z M25,46h7v-2
		h-7V46z"></path><path d="M33 44h-9c-.552 0-1-.447-1-1v-7c0-.205.063-.405.181-.573l5.104-7.292c.631-.902 1.625-1.43 2.726-1.448 1.091-.016 2.111.477 2.772 1.358.008.01.015.02.022.029L34 27.734V14c0-1.654 1.346-3 3-3s3 1.346 3 3v17.338c0 1.269-.345 2.514-.998 3.602l-5.145 8.575C33.677 43.815 33.351 44 33 44zM25 42h7.434l4.854-8.09C37.753 33.134 38 32.244 38 31.338V14c0-.552-.449-1-1-1s-1 .448-1 1v14c0 .174-.045.345-.132.496l-1.717 3.005c-.073.159-.16.314-.259.464l-3.06 4.59c-.307.459-.927.583-1.387.277-.459-.307-.583-.927-.277-1.387l3.194-4.844c.178-.446.117-.963-.179-1.357-.271-.361-.677-.558-1.139-.558-.453.008-.861.225-1.12.595L25 36.315V42zM24 18c-4.962 0-9-4.037-9-9s4.038-9 9-9 9 4.037 9 9S28.962 18 24 18zM24 2c-3.86 0-7 3.141-7 7s3.14 7 7 7 7-3.141 7-7S27.86 2 24 2z"></path><path d="M27 13c-.552 0-1-.447-1-1 0-1.103-.897-2-2-2s-2 .897-2 2c0 .553-.448 1-1 1s-1-.447-1-1c0-2.206 1.794-4 4-4s4 1.794 4 4C28 12.553 27.552 13 27 13zM22 6c-.27 0-.52-.101-.71-.29C21.1 5.52 21 5.27 21 5c0-.13.03-.26.08-.38.05-.13.12-.23.21-.33.1-.09.21-.16.33-.21.36-.16.81-.07 1.09.21C22.89 4.479 23 4.74 23 5c0 .27-.1.52-.29.71-.1.09-.21.16-.33.21S22.13 6 22 6zM26 6c-.27 0-.52-.101-.71-.29-.09-.101-.16-.21-.21-.33C25.03 5.26 25 5.13 25 5c0-.26.11-.521.29-.71.1-.09.21-.16.33-.21.36-.16.81-.07 1.09.21C26.89 4.479 27 4.74 27 5c0 .13-.03.26-.08.38-.05.12-.12.229-.21.33C26.52 5.899 26.27 6 26 6z"></path></svg>